<mxfile host="app.diagrams.net" agent="Mozilla/5.0 (Windows NT 10.0; Win64; x64) AppleWebKit/537.36 (KHTML, like Gecko) Chrome/127.0.0.0 Safari/537.36" version="24.7.6">
  <diagram id="Z08eTgGWAjNeXDMgQ9Qe" name="Halaman-1">
    <mxGraphModel dx="880" dy="468" grid="1" gridSize="10" guides="1" tooltips="1" connect="1" arrows="1" fold="1" page="1" pageScale="1" pageWidth="827" pageHeight="1169" math="0" shadow="0">
      <root>
        <mxCell id="0" />
        <mxCell id="1" parent="0" />
        <mxCell id="qkGCgfdNhCn7gsHB5-3L-1" value="Admin / Mahasiswa" style="swimlane;whiteSpace=wrap;html=1;startSize=30;" parent="1" vertex="1">
          <mxGeometry y="40" width="290" height="990" as="geometry" />
        </mxCell>
        <mxCell id="qkGCgfdNhCn7gsHB5-3L-2" style="edgeStyle=orthogonalEdgeStyle;rounded=0;orthogonalLoop=1;jettySize=auto;html=1;entryX=0.5;entryY=0;entryDx=0;entryDy=0;" parent="qkGCgfdNhCn7gsHB5-3L-1" source="qkGCgfdNhCn7gsHB5-3L-3" target="qkGCgfdNhCn7gsHB5-3L-4" edge="1">
          <mxGeometry relative="1" as="geometry" />
        </mxCell>
        <mxCell id="qkGCgfdNhCn7gsHB5-3L-3" value="" style="ellipse;html=1;shape=startState;fillColor=#000000;strokeColor=#ff0000;" parent="qkGCgfdNhCn7gsHB5-3L-1" vertex="1">
          <mxGeometry x="130" y="40" width="30" height="30" as="geometry" />
        </mxCell>
        <mxCell id="qkGCgfdNhCn7gsHB5-3L-4" value="Menekan Tombol&lt;div&gt;Browser&lt;/div&gt;" style="rounded=1;whiteSpace=wrap;html=1;" parent="qkGCgfdNhCn7gsHB5-3L-1" vertex="1">
          <mxGeometry x="85" y="110" width="120" height="60" as="geometry" />
        </mxCell>
        <mxCell id="vkcGki8KC0y3EEtt56Kg-1" value="Mengetik &quot;JepangCita&quot; pada Search Bar" style="whiteSpace=wrap;html=1;rounded=1;" parent="qkGCgfdNhCn7gsHB5-3L-1" vertex="1">
          <mxGeometry x="80" y="232" width="120" height="60" as="geometry" />
        </mxCell>
        <mxCell id="uZUW2Ec-_Onot317kJtL-8" style="edgeStyle=orthogonalEdgeStyle;rounded=0;orthogonalLoop=1;jettySize=auto;html=1;exitX=1;exitY=0.5;exitDx=0;exitDy=0;" parent="qkGCgfdNhCn7gsHB5-3L-1" source="uZUW2Ec-_Onot317kJtL-4" target="uZUW2Ec-_Onot317kJtL-7" edge="1">
          <mxGeometry relative="1" as="geometry" />
        </mxCell>
        <mxCell id="uZUW2Ec-_Onot317kJtL-9" value="Ya" style="edgeLabel;html=1;align=center;verticalAlign=middle;resizable=0;points=[];" parent="uZUW2Ec-_Onot317kJtL-8" vertex="1" connectable="0">
          <mxGeometry x="-0.2014" y="1" relative="1" as="geometry">
            <mxPoint as="offset" />
          </mxGeometry>
        </mxCell>
        <mxCell id="uZUW2Ec-_Onot317kJtL-11" style="edgeStyle=orthogonalEdgeStyle;rounded=0;orthogonalLoop=1;jettySize=auto;html=1;exitX=0.5;exitY=1;exitDx=0;exitDy=0;entryX=0.5;entryY=0;entryDx=0;entryDy=0;" parent="qkGCgfdNhCn7gsHB5-3L-1" source="uZUW2Ec-_Onot317kJtL-4" target="uZUW2Ec-_Onot317kJtL-10" edge="1">
          <mxGeometry relative="1" as="geometry" />
        </mxCell>
        <mxCell id="uZUW2Ec-_Onot317kJtL-12" value="Tidak" style="edgeLabel;html=1;align=center;verticalAlign=middle;resizable=0;points=[];" parent="uZUW2Ec-_Onot317kJtL-11" vertex="1" connectable="0">
          <mxGeometry x="-0.0097" y="2" relative="1" as="geometry">
            <mxPoint x="-1" y="-5" as="offset" />
          </mxGeometry>
        </mxCell>
        <mxCell id="uZUW2Ec-_Onot317kJtL-4" value="Sudah Memiliki Akun?" style="rhombus;whiteSpace=wrap;html=1;" parent="qkGCgfdNhCn7gsHB5-3L-1" vertex="1">
          <mxGeometry x="32" y="360" width="80" height="80" as="geometry" />
        </mxCell>
        <mxCell id="uZUW2Ec-_Onot317kJtL-7" value="Memilih Menu Login" style="whiteSpace=wrap;html=1;rounded=1;" parent="qkGCgfdNhCn7gsHB5-3L-1" vertex="1">
          <mxGeometry x="160" y="370" width="120" height="60" as="geometry" />
        </mxCell>
        <mxCell id="uZUW2Ec-_Onot317kJtL-10" value="Memilih Menu Registrasi" style="whiteSpace=wrap;html=1;rounded=1;" parent="qkGCgfdNhCn7gsHB5-3L-1" vertex="1">
          <mxGeometry x="12" y="480" width="120" height="60" as="geometry" />
        </mxCell>
        <mxCell id="uZUW2Ec-_Onot317kJtL-15" value="Mengisi Form Login" style="whiteSpace=wrap;html=1;rounded=1;" parent="qkGCgfdNhCn7gsHB5-3L-1" vertex="1">
          <mxGeometry x="90" y="653" width="120" height="60" as="geometry" />
        </mxCell>
        <mxCell id="uZUW2Ec-_Onot317kJtL-25" value="Memilih Menu Materi" style="whiteSpace=wrap;html=1;rounded=1;" parent="qkGCgfdNhCn7gsHB5-3L-1" vertex="1">
          <mxGeometry x="90" y="733" width="120" height="60" as="geometry" />
        </mxCell>
        <mxCell id="uZUW2Ec-_Onot317kJtL-38" value="Mengisi Form Registrasi" style="whiteSpace=wrap;html=1;rounded=1;" parent="qkGCgfdNhCn7gsHB5-3L-1" vertex="1">
          <mxGeometry x="160" y="540" width="120" height="60" as="geometry" />
        </mxCell>
        <mxCell id="qkGCgfdNhCn7gsHB5-3L-5" value="Sistem" style="swimlane;whiteSpace=wrap;html=1;startSize=30;" parent="1" vertex="1">
          <mxGeometry x="290" y="40" width="370" height="990" as="geometry" />
        </mxCell>
        <mxCell id="qkGCgfdNhCn7gsHB5-3L-6" value="Menampilkan Panel Browser" style="whiteSpace=wrap;html=1;rounded=1;" parent="qkGCgfdNhCn7gsHB5-3L-5" vertex="1">
          <mxGeometry x="38" y="110" width="120" height="60" as="geometry" />
        </mxCell>
        <mxCell id="vkcGki8KC0y3EEtt56Kg-17" value="Menampilkan Website JepangCita" style="whiteSpace=wrap;html=1;rounded=1;" parent="qkGCgfdNhCn7gsHB5-3L-5" vertex="1">
          <mxGeometry x="38" y="232" width="120" height="60" as="geometry" />
        </mxCell>
        <mxCell id="uZUW2Ec-_Onot317kJtL-13" value="Menampilkan Halaman Login" style="whiteSpace=wrap;html=1;rounded=1;" parent="qkGCgfdNhCn7gsHB5-3L-5" vertex="1">
          <mxGeometry x="150" y="370" width="120" height="60" as="geometry" />
        </mxCell>
        <mxCell id="uZUW2Ec-_Onot317kJtL-42" style="edgeStyle=orthogonalEdgeStyle;rounded=0;orthogonalLoop=1;jettySize=auto;html=1;exitX=0.5;exitY=0;exitDx=0;exitDy=0;entryX=1;entryY=0.5;entryDx=0;entryDy=0;" parent="qkGCgfdNhCn7gsHB5-3L-5" source="uZUW2Ec-_Onot317kJtL-17" target="uZUW2Ec-_Onot317kJtL-13" edge="1">
          <mxGeometry relative="1" as="geometry" />
        </mxCell>
        <mxCell id="uZUW2Ec-_Onot317kJtL-43" value="Tidak" style="edgeLabel;html=1;align=center;verticalAlign=middle;resizable=0;points=[];" parent="uZUW2Ec-_Onot317kJtL-42" vertex="1" connectable="0">
          <mxGeometry x="0.8369" y="1" relative="1" as="geometry">
            <mxPoint x="23" y="215" as="offset" />
          </mxGeometry>
        </mxCell>
        <mxCell id="uZUW2Ec-_Onot317kJtL-59" style="edgeStyle=orthogonalEdgeStyle;rounded=0;orthogonalLoop=1;jettySize=auto;html=1;exitX=0.5;exitY=1;exitDx=0;exitDy=0;entryX=1;entryY=0.5;entryDx=0;entryDy=0;" parent="qkGCgfdNhCn7gsHB5-3L-5" source="uZUW2Ec-_Onot317kJtL-17" target="uZUW2Ec-_Onot317kJtL-21" edge="1">
          <mxGeometry relative="1" as="geometry" />
        </mxCell>
        <mxCell id="uZUW2Ec-_Onot317kJtL-60" value="Ya" style="edgeLabel;html=1;align=center;verticalAlign=middle;resizable=0;points=[];" parent="uZUW2Ec-_Onot317kJtL-59" vertex="1" connectable="0">
          <mxGeometry x="-0.5341" relative="1" as="geometry">
            <mxPoint y="-4" as="offset" />
          </mxGeometry>
        </mxCell>
        <mxCell id="uZUW2Ec-_Onot317kJtL-17" value="Email &amp;amp; Password Benar?" style="rhombus;whiteSpace=wrap;html=1;" parent="qkGCgfdNhCn7gsHB5-3L-5" vertex="1">
          <mxGeometry x="270" y="638" width="90" height="90" as="geometry" />
        </mxCell>
        <mxCell id="uZUW2Ec-_Onot317kJtL-21" value="Menampilkan Halaman Dashboard" style="whiteSpace=wrap;html=1;rounded=1;" parent="qkGCgfdNhCn7gsHB5-3L-5" vertex="1">
          <mxGeometry x="150" y="733" width="120" height="60" as="geometry" />
        </mxCell>
        <mxCell id="uZUW2Ec-_Onot317kJtL-30" style="edgeStyle=orthogonalEdgeStyle;rounded=0;orthogonalLoop=1;jettySize=auto;html=1;entryX=0.5;entryY=0;entryDx=0;entryDy=0;" parent="qkGCgfdNhCn7gsHB5-3L-5" source="uZUW2Ec-_Onot317kJtL-27" target="uZUW2Ec-_Onot317kJtL-29" edge="1">
          <mxGeometry relative="1" as="geometry" />
        </mxCell>
        <mxCell id="uZUW2Ec-_Onot317kJtL-27" value="Menampilkan Menu Materi" style="whiteSpace=wrap;html=1;rounded=1;" parent="qkGCgfdNhCn7gsHB5-3L-5" vertex="1">
          <mxGeometry x="126" y="831" width="120" height="60" as="geometry" />
        </mxCell>
        <mxCell id="uZUW2Ec-_Onot317kJtL-29" value="" style="ellipse;html=1;shape=endState;fillColor=#000000;strokeColor=#ff0000;" parent="qkGCgfdNhCn7gsHB5-3L-5" vertex="1">
          <mxGeometry x="171" y="925" width="30" height="30" as="geometry" />
        </mxCell>
        <mxCell id="uZUW2Ec-_Onot317kJtL-36" value="Menampilkan Halaman Registrasi" style="whiteSpace=wrap;html=1;rounded=1;" parent="qkGCgfdNhCn7gsHB5-3L-5" vertex="1">
          <mxGeometry x="38" y="440" width="120" height="60" as="geometry" />
        </mxCell>
        <mxCell id="uZUW2Ec-_Onot317kJtL-58" style="edgeStyle=orthogonalEdgeStyle;rounded=0;orthogonalLoop=1;jettySize=auto;html=1;entryX=0.25;entryY=1;entryDx=0;entryDy=0;" parent="qkGCgfdNhCn7gsHB5-3L-5" source="uZUW2Ec-_Onot317kJtL-54" target="uZUW2Ec-_Onot317kJtL-13" edge="1">
          <mxGeometry relative="1" as="geometry">
            <Array as="points">
              <mxPoint x="180" y="570" />
            </Array>
          </mxGeometry>
        </mxCell>
        <mxCell id="uZUW2Ec-_Onot317kJtL-54" value="Berhasil Registrasi" style="whiteSpace=wrap;html=1;rounded=1;" parent="qkGCgfdNhCn7gsHB5-3L-5" vertex="1">
          <mxGeometry x="38" y="540" width="120" height="60" as="geometry" />
        </mxCell>
        <mxCell id="qkGCgfdNhCn7gsHB5-3L-9" value="" style="edgeStyle=orthogonalEdgeStyle;rounded=0;orthogonalLoop=1;jettySize=auto;html=1;exitX=1;exitY=0.5;exitDx=0;exitDy=0;" parent="1" source="qkGCgfdNhCn7gsHB5-3L-4" target="qkGCgfdNhCn7gsHB5-3L-6" edge="1">
          <mxGeometry relative="1" as="geometry">
            <mxPoint x="220" y="170.0285714285714" as="sourcePoint" />
          </mxGeometry>
        </mxCell>
        <mxCell id="vkcGki8KC0y3EEtt56Kg-2" style="edgeStyle=orthogonalEdgeStyle;rounded=0;orthogonalLoop=1;jettySize=auto;html=1;exitX=0.5;exitY=1;exitDx=0;exitDy=0;entryX=0.5;entryY=0;entryDx=0;entryDy=0;" parent="1" source="qkGCgfdNhCn7gsHB5-3L-6" target="vkcGki8KC0y3EEtt56Kg-1" edge="1">
          <mxGeometry relative="1" as="geometry" />
        </mxCell>
        <mxCell id="vkcGki8KC0y3EEtt56Kg-6" style="edgeStyle=orthogonalEdgeStyle;rounded=0;orthogonalLoop=1;jettySize=auto;html=1;entryX=0;entryY=0.5;entryDx=0;entryDy=0;" parent="1" source="vkcGki8KC0y3EEtt56Kg-1" target="vkcGki8KC0y3EEtt56Kg-17" edge="1">
          <mxGeometry relative="1" as="geometry">
            <mxPoint x="280" y="302" as="targetPoint" />
          </mxGeometry>
        </mxCell>
        <mxCell id="uZUW2Ec-_Onot317kJtL-3" style="edgeStyle=orthogonalEdgeStyle;rounded=0;orthogonalLoop=1;jettySize=auto;html=1;entryX=0.5;entryY=0;entryDx=0;entryDy=0;exitX=0.5;exitY=1;exitDx=0;exitDy=0;" parent="1" source="vkcGki8KC0y3EEtt56Kg-17" target="uZUW2Ec-_Onot317kJtL-4" edge="1">
          <mxGeometry relative="1" as="geometry">
            <mxPoint x="145.0000000000001" y="400" as="targetPoint" />
            <Array as="points">
              <mxPoint x="368" y="360" />
              <mxPoint x="90" y="360" />
            </Array>
          </mxGeometry>
        </mxCell>
        <mxCell id="uZUW2Ec-_Onot317kJtL-14" style="edgeStyle=orthogonalEdgeStyle;rounded=0;orthogonalLoop=1;jettySize=auto;html=1;entryX=0;entryY=0.5;entryDx=0;entryDy=0;" parent="1" source="uZUW2Ec-_Onot317kJtL-7" target="uZUW2Ec-_Onot317kJtL-13" edge="1">
          <mxGeometry relative="1" as="geometry" />
        </mxCell>
        <mxCell id="uZUW2Ec-_Onot317kJtL-26" value="" style="edgeStyle=orthogonalEdgeStyle;rounded=0;orthogonalLoop=1;jettySize=auto;html=1;entryX=1;entryY=0.5;entryDx=0;entryDy=0;" parent="1" source="uZUW2Ec-_Onot317kJtL-21" target="uZUW2Ec-_Onot317kJtL-25" edge="1">
          <mxGeometry relative="1" as="geometry" />
        </mxCell>
        <mxCell id="uZUW2Ec-_Onot317kJtL-37" style="edgeStyle=orthogonalEdgeStyle;rounded=0;orthogonalLoop=1;jettySize=auto;html=1;entryX=0;entryY=0.5;entryDx=0;entryDy=0;" parent="1" source="uZUW2Ec-_Onot317kJtL-10" target="uZUW2Ec-_Onot317kJtL-36" edge="1">
          <mxGeometry relative="1" as="geometry">
            <Array as="points">
              <mxPoint x="190" y="550" />
              <mxPoint x="190" y="510" />
            </Array>
          </mxGeometry>
        </mxCell>
        <mxCell id="uZUW2Ec-_Onot317kJtL-40" style="edgeStyle=orthogonalEdgeStyle;rounded=0;orthogonalLoop=1;jettySize=auto;html=1;exitX=0.5;exitY=1;exitDx=0;exitDy=0;entryX=0.5;entryY=0;entryDx=0;entryDy=0;" parent="1" source="uZUW2Ec-_Onot317kJtL-13" target="uZUW2Ec-_Onot317kJtL-15" edge="1">
          <mxGeometry relative="1" as="geometry">
            <Array as="points">
              <mxPoint x="500" y="670" />
              <mxPoint x="150" y="670" />
            </Array>
          </mxGeometry>
        </mxCell>
        <mxCell id="uZUW2Ec-_Onot317kJtL-41" style="edgeStyle=orthogonalEdgeStyle;rounded=0;orthogonalLoop=1;jettySize=auto;html=1;exitX=1;exitY=0.5;exitDx=0;exitDy=0;entryX=0;entryY=0.5;entryDx=0;entryDy=0;" parent="1" source="uZUW2Ec-_Onot317kJtL-15" target="uZUW2Ec-_Onot317kJtL-17" edge="1">
          <mxGeometry relative="1" as="geometry" />
        </mxCell>
        <mxCell id="uZUW2Ec-_Onot317kJtL-46" style="edgeStyle=orthogonalEdgeStyle;rounded=0;orthogonalLoop=1;jettySize=auto;html=1;entryX=0.5;entryY=0;entryDx=0;entryDy=0;" parent="1" source="uZUW2Ec-_Onot317kJtL-25" target="uZUW2Ec-_Onot317kJtL-27" edge="1">
          <mxGeometry relative="1" as="geometry">
            <Array as="points">
              <mxPoint x="150" y="850" />
              <mxPoint x="476" y="850" />
            </Array>
          </mxGeometry>
        </mxCell>
        <mxCell id="uZUW2Ec-_Onot317kJtL-48" style="edgeStyle=orthogonalEdgeStyle;rounded=0;orthogonalLoop=1;jettySize=auto;html=1;entryX=0.5;entryY=0;entryDx=0;entryDy=0;" parent="1" source="uZUW2Ec-_Onot317kJtL-36" target="uZUW2Ec-_Onot317kJtL-38" edge="1">
          <mxGeometry relative="1" as="geometry">
            <Array as="points">
              <mxPoint x="388" y="560" />
              <mxPoint x="220" y="560" />
            </Array>
          </mxGeometry>
        </mxCell>
        <mxCell id="uZUW2Ec-_Onot317kJtL-55" style="edgeStyle=orthogonalEdgeStyle;rounded=0;orthogonalLoop=1;jettySize=auto;html=1;entryX=0;entryY=0.5;entryDx=0;entryDy=0;" parent="1" source="uZUW2Ec-_Onot317kJtL-38" target="uZUW2Ec-_Onot317kJtL-54" edge="1">
          <mxGeometry relative="1" as="geometry" />
        </mxCell>
      </root>
    </mxGraphModel>
  </diagram>
</mxfile>
